<svg id="Layer_1" data-name="Layer 1" xmlns="http://www.w3.org/2000/svg" viewBox="0 0 1400 1400"><defs><style>.cls-1{fill:none;stroke:#000;stroke-miterlimit:10;stroke-width:8px;}.cls-2{font-size:241.74px;letter-spacing:0.09em;}.cls-2,.cls-3,.cls-4,.cls-5,.cls-6,.cls-7{font-family:AzoSans-Bold, Azo Sans;font-weight:700;}.cls-3,.cls-4,.cls-5,.cls-6,.cls-7{writing-mode:tb;text-orientation:upright;glyph-orientation-vertical:0deg;}.cls-3{font-size:258.3px;letter-spacing:-0.11em;}.cls-4{font-size:258.29px;letter-spacing:-0.12em;}.cls-5{font-size:258.29px;letter-spacing:-0.11em;}.cls-6{font-size:258.29px;letter-spacing:-0.12em;}.cls-7{font-size:258.3px;letter-spacing:-0.11em;}</style></defs><rect class="cls-1" x="334" y="433.65" width="241.6" height="830.41" transform="translate(909.61 1697.72) rotate(-180)"/><path d="M352.76,1157.84H462.89v-12H339.5a6,6,0,0,0,0,12H462.89a6,6,0,1,0,0-12H352.76a6,6,0,0,0,0,12Z"/><path d="M497.68,1123H337.61a6,6,0,1,0,0,12H497.68a6,6,0,1,0,0-12Z"/><rect class="cls-1" x="138.06" y="317.47" width="196.38" height="946.73"/><path d="M143.51,456h104a6,6,0,0,0,0-12h-104a6,6,0,0,0,0,12Z"/><path d="M159.72,1204.62H331.1a6,6,0,0,0,0-12H159.72a6,6,0,0,0,0,12Z"/><path d="M143,432.19H313.43a6,6,0,0,0,0-12H143a6,6,0,1,0,0,12Z"/><path d="M184,1232.81H331.25a6,6,0,0,0,0-12H184a6,6,0,1,0,0,12Z"/><path d="M139.43,481.51h172a6,6,0,1,0,0-12h-172a6,6,0,0,0,0,12Z"/><rect class="cls-1" x="575.61" y="358.74" width="159.16" height="905.32"/><path d="M580,528.72H705.83a6,6,0,1,0,0-12H580a6,6,0,0,0,0,12Z"/><path d="M580,501.32H705.83a6,6,0,0,0,0-12H580a6,6,0,0,0,0,12Z"/><rect class="cls-1" x="736.03" y="317.35" width="191.15" height="946.69" transform="translate(1663.39 1581.2) rotate(179.99)"/><path d="M866.07,1076.05l-97.5,0H741.08a6,6,0,1,0,0,12l97.49,0h27.5a6,6,0,0,0,0-12Z"/><path d="M921.11,1156.49l-66.81,0-66.57,0H750.08a6,6,0,0,0,0,12H816.9l66.57,0h37.64a6,6,0,0,0,0-12Z"/><path d="M923.06,1183.24l-64.21,0H758.66a6,6,0,0,0,0,12h64.21l64,0h36.23a6,6,0,1,0,0-12Z"/><path d="M850.83,1103.58l-87.75,0H738.15a6,6,0,1,0,0,12l87.75,0h24.93a6,6,0,0,0,0-12Z"/><path d="M925.05,383.56h-64.9l-64.91,0H758.79a6,6,0,0,0,0,12l64.91,0H925.05a6,6,0,0,0,0-12Z"/><path d="M924,363.8h-60.1l-60.1,0H769.88a6,6,0,0,0,0,12H924a6,6,0,0,0,0-12Z"/><text/><text class="cls-2" transform="translate(118.89 305.09)">BOOK</text><text class="cls-3" transform="matrix(0.62, 0.5, -0.63, 0.78, 1180.83, 339.15)">H</text><text class="cls-4" transform="matrix(0.71, -0.36, 0.45, 0.89, 1093.81, 575.96)">E</text><text class="cls-5" transform="translate(1250.29 815.55) rotate(23.34) scale(0.8 1)">L</text><text class="cls-6" transform="matrix(0.46, -0.65, 0.82, 0.58, 1099.5, 1091.7)">F</text><text class="cls-7" transform="matrix(0.74, 0.29, -0.36, 0.93, 1047.62, 105.25)">S</text></svg>