<svg id="Layer_1" data-name="Layer 1" xmlns="http://www.w3.org/2000/svg" viewBox="0 0 1400 1400"><defs><style>.cls-1{fill:none;stroke:#000;stroke-miterlimit:10;stroke-width:8px;}</style></defs><rect class="cls-1" x="334.0021" y="433.6524" width="241.6042" height="830.4104" transform="translate(909.6084 1697.7151) rotate(-180)"/><path d="M352.762,1157.8375h110.13v-12H339.5012a6,6,0,1,0,0,12H462.892a6,6,0,1,0,0-12H352.762a6,6,0,1,0,0,12Z"/><path d="M497.6839,1122.9659H337.6068a6,6,0,0,0,0,12H497.6839a6,6,0,0,0,0-12Z"/><rect class="cls-1" x="138.0638" y="317.4713" width="196.3785" height="946.7324"/><path d="M143.51,455.9885H247.5215a6,6,0,0,0,0-12H143.51a6,6,0,0,0,0,12Z"/><path d="M159.7191,1204.6188l66.9553,0,66.7055,0h37.7248a6,6,0,1,0,0-12l-66.9553,0H197.4439l-37.7248,0a6,6,0,0,0,0,12Z"/><path d="M142.9844,432.1941h132.96l37.4887,0a6,6,0,0,0,0-12l-66.48,0H142.9844a6,6,0,0,0,0,12Z"/><path d="M184.0332,1232.8127H331.2493a6,6,0,0,0,0-12H184.0332a6,6,0,0,0,0,12Z"/><path d="M139.4263,481.51H273.5511l37.894,0a6,6,0,0,0,0-12l-67.3117,0H139.4263a6,6,0,0,0,0,12Z"/><rect class="cls-1" x="575.6063" y="358.7399" width="159.1594" height="905.324"/><path d="M579.9725,528.7174H705.8346a6,6,0,1,0,0-12H579.9725a6,6,0,1,0,0,12Z"/><path d="M579.9725,501.3245H705.8346a6,6,0,0,0,0-12H579.9725a6,6,0,0,0,0,12Z"/><rect class="cls-1" x="736.0279" y="317.3539" width="191.1462" height="946.6877" transform="translate(1663.3877 1581.2002) rotate(179.9865)"/><path d="M866.07,1076.0508l-97.4955.0229-27.4987.0065a6,6,0,0,0,0,12l97.4955-.0229,27.4987-.0065a6,6,0,0,0,0-12Z"/><path d="M921.1145,1156.494l-66.8166.0157-66.5674.0156-37.6467.0089a6,6,0,1,0,0,12l66.8167-.0157,66.5673-.0157,37.6467-.0088a6,6,0,0,0,0-12Z"/><path d="M923.0557,1183.2419l-64.21.0151-63.96.015-36.2273.0085a6,6,0,1,0,0,12l64.21-.0151,63.96-.015,36.2273-.0085a6,6,0,0,0,0-12Z"/><path d="M850.8345,1103.5849l-87.7556.0206-24.9306.0058a6,6,0,1,0,0,12l87.7556-.0206,24.9306-.0058a6,6,0,1,0,0-12Z"/><path d="M925.0532,383.5588l-64.9056.0152-64.9057.0153-36.447.0085a6,6,0,1,0,0,12l64.9057-.0152,64.9056-.0153,36.447-.0085a6,6,0,1,0,0-12Z"/><path d="M923.9864,363.7982l-60.0984.0141-60.0984.0141-33.9145.008a6,6,0,0,0,0,12l60.0985-.0141,60.0984-.0141,33.9144-.008a6,6,0,0,0,0-12Z"/><path d="M134.8408,130.0708h51.0083c23.6909,0,41.3384,3.3843,53.1841,9.9116,13.5376,7.4942,19.8228,19.3394,19.8228,33.8443,0,18.8559-10.3951,29.7348-26.35,35.5366v.4834c22.2407,6.5273,33.3608,21.0317,33.3608,42.5473s-11.12,37.47-33.3608,45.9312c-12.0874,4.5933-27.0752,6.769-45.69,6.769H134.8408Zm58.7442,72.5234c15.7133,0,26.8335-5.8017,26.8335-20.0649,0-5.56-1.6919-11.6035-8.2193-15.23-6.2851-3.6265-16.9219-4.3516-27.0752-4.3516H173.2783v39.646Zm-6.0435,69.6226c13.7793,0,23.2075-.9668,29.0093-3.3843,8.2192-3.3843,10.8784-9.9116,10.8784-17.6474,0-15.23-10.6367-22.2408-31.1851-22.2408H173.2783v43.2725Z"/><path d="M303.33,217.5825c0-51.0083,39.4043-90.1709,91.38-90.1709s91.3794,39.1626,91.3794,90.1709-39.4043,90.1709-91.3794,90.1709S303.33,268.5908,303.33,217.5825Zm144.3218,0c0-30.9433-22.7242-55.3594-52.9419-55.3594s-52.9424,24.4161-52.9424,55.3594,22.7241,55.36,52.9424,55.36S447.6519,248.5259,447.6519,217.5825Z"/><path d="M524.2764,217.5825c0-51.0083,39.4043-90.1709,91.38-90.1709s91.38,39.1626,91.38,90.1709-39.4048,90.1709-91.38,90.1709S524.2764,268.5908,524.2764,217.5825Zm144.3217,0c0-30.9433-22.7241-55.3594-52.9419-55.3594s-52.9423,24.4161-52.9423,55.3594,22.7241,55.36,52.9423,55.36S668.5981,248.5259,668.5981,217.5825Z"/><path d="M752.959,130.0708h38.4375v77.3584l.4834.2417,61.1611-77.6h45.6895l-66.2373,81.2266,71.7978,93.7968H856.9092L791.88,217.5825l-.4834.2417v87.27H752.959Z"/><path d="M1107.752,326.5713l25.5166,20.4531-45.2334,56.4331,50.2314,40.2627L1183.5,387.2871l25.5166,20.4526L1092.0547,553.66l-25.5166-20.4527,49.2724-61.4721-50.2314-40.2627-49.2725,61.4721L990.79,472.4912Z"/><path d="M1070.5273,627.8564l82.1289-41.3159,16.1358,32.0742-52.915,26.62L1132.3594,678l45.5664-22.9224,15.3222,30.459-45.5664,22.9224,19.9668,39.6885,54.9356-27.6368,16.1367,32.0743-84.15,42.333Z"/><path d="M1196.124,831.2705l30.0254,12.958-59.876,138.7363,59.8614,25.835-14.2266,32.9648-89.8867-38.7929Z"/><path d="M1103.1074,1148.8682l54.4268-77.1348,29.3349,20.6982-35.5722,50.4151,32.92,23.2295,30.5937-43.3565,27.8575,19.6563-30.5938,43.3564,62.6778,44.2266-18.8536,26.72Z"/><path d="M941.4023,246.8c9.8741,18.2685,26.3008,31.0542,37.2217,35.3144,11.1133,4.336,21.5117,2.0157,26.5811-10.9794,6.289-16.1226-6.1768-22.6495-21.18-36.82-16.0635-15.416-28.708-33.9345-16.88-64.2548,12.6729-32.4864,40.1025-45.0752,69.2275-33.7134,13.6045,5.3071,28.585,16.1421,37.4649,29.0332l-14.7393,37.78c-10.247-17.3062-25.2363-29.253-35.9658-33.439-10.3476-4.0366-19.6963-2.1392-24.2031,9.4116-6.0078,15.4009,6.36,21.6123,20.3086,35.0938,17.5049,16.811,29.58,35.6616,17.5635,66.4634-13.2364,33.93-41.72,46.3852-71.61,34.7246-13.7969-5.3824-29.1592-16.3658-38.9033-29.8716Z"/></svg>